{"title":"Ghostquake.2012.DVDRip.XviD-PTpOWeR","uid":7972826,"size":730067658,"categoryP":"video","categoryS":"movies","magnet":"?xt=urn:btih:dc63f561ab5f1b081cc9f4bc14d9be2f06cec59e&amp;dn=Ghostquake.2012.DVDRip.XviD-PTpOWeR&amp;tr=udp%3A%2F%2Ftracker.openbittorrent.com%3A80&amp;tr=udp%3A%2F%2Fopen.demonii.com%3A1337&amp;tr=udp%3A%2F%2Ftracker.coppersurfer.tk%3A6969&amp;tr=udp%3A%2F%2Fexodus.desync.com%3A6969","seeders":2,"leechers":0,"uploader":"xxxlavalxxx","files":2,"time":1356903372,"description":" &lt;a href=&quot;http://www.shotpix.com/images/28677356544636853791.jpg&quot; rel=&quot;nofollow&quot; target=&quot;_NEW&quot;&gt;http://www.shotpix.com/images/28677356544636853791.jpg&lt;/a&gt;\n &lt;a href=&quot;\nhttp://www.imdb.com/title/tt2034009/&quot; rel=&quot;nofollow&quot; target=&quot;_NEW&quot;&gt;\nhttp://www.imdb.com/title/tt2034009/&lt;/a&gt;\n\n &lt;a href=&quot;\nhttp://www.shotpix.com/images/89310304753017454169.png&quot; rel=&quot;nofollow&quot; target=&quot;_NEW&quot;&gt;\nhttp://www.shotpix.com/images/89310304753017454169.png&lt;/a&gt;\n\nFormat                                   : AVI\nFormat/Info                              : Audio Video Interleave\nFile size                                : 696 MiB\nDuration                                 : 1h 23mn\nOverall bit rate                         : 1 160 Kbps\n\nVideo\nID                                       : 0\nFormat                                   : MPEG-4 Visual\nFormat profile                           : Simple@L3\nFormat settings, BVOP                    : No\nFormat settings, QPel                    : No\nFormat settings, GMC                     : No warppoints\nFormat settings, Matrix                  : Default (H.263)\nCodec ID                                 : XVID\nCodec ID/Hint                            : XviD\nDuration                                 : 1h 23mn\nSource duration                          : 1h 23mn\nBit rate                                 : 1 019 Kbps\nWidth                                    : 624 pixels\nHeight                                   : 352 pixels\nDisplay aspect ratio                     : 16:9\nFrame rate                               : 25.000 fps\nColor space                              : YUV\nChroma subsampling                       : 4:2:0\nBit depth                                : 8 bits\nScan type                                : Progressive\nCompression mode                         : Lossy\nBits/(Pixel*Frame)                       : 0.186\nStream size                              : 612 MiB (88%)\nWriting library                          : XviD 1.1.2 (UTC 2006-11-01)\n\nAudio\nID                                       : 1\nFormat                                   : MPEG Audio\nFormat version                           : Version 1\nFormat profile                           : Layer 3\nMode                                     : Joint stereo\nMode extension                           : MS Stereo\nCodec ID                                 : 55\nCodec ID/Hint                            : MP3\nDuration                                 : 1h 23mn\nBit rate mode                            : Constant\nBit rate                                 : 128 Kbps\nChannel(s)                               : 2 channels\nSampling rate                            : 48.0 KHz\nCompression mode                         : Lossy\nStream size                              : 76.8 MiB (11%)\nAlignment                                : Split accross interleaves\nInterleave, duration                     : 24 ms (0.60 video frame)\nWriting library                          : LAME3.98\n\n\n\n\nA New England private school is visited by a demonic dead headmaster. \n\n\n\nDirector: \nJeffery Scott Lando\n\n Writers: \nAnthony C. Ferrante (story), Paul A. Birkett\n \nStars:\n M.C. Gainey, Lauren Pennington and Shawn C. Phillips\n\n\nCountry:\nUSA \n\nLanguage:\nEnglish \n\nGenres:\n Horror | Sci-Fi\n\n &lt;a href=&quot;\nhttp://www.shotpix.com/images/90191950021786662776.png&quot; rel=&quot;nofollow&quot; target=&quot;_NEW&quot;&gt;\nhttp://www.shotpix.com/images/90191950021786662776.png&lt;/a&gt; &lt;a href=&quot;\nhttp://www.shotpix.com/images/38864567159773824585.png&quot; rel=&quot;nofollow&quot; target=&quot;_NEW&quot;&gt;\nhttp://www.shotpix.com/images/38864567159773824585.png&lt;/a&gt; &lt;a href=&quot;\nhttp://www.shotpix.com/images/14616333967435872758.png&quot; rel=&quot;nofollow&quot; target=&quot;_NEW&quot;&gt;\nhttp://www.shotpix.com/images/14616333967435872758.png&lt;/a&gt; &lt;a href=&quot;\nhttp://www.shotpix.com/images/79404843375280401191.png&quot; rel=&quot;nofollow&quot; target=&quot;_NEW&quot;&gt;\nhttp://www.shotpix.com/images/79404843375280401191.png&lt;/a&gt;","torrent":{"xt":"urn:btih:dc63f561ab5f1b081cc9f4bc14d9be2f06cec59e","amp;dn":"Ghostquake.2012.DVDRip.XviD-PTpOWeR","amp;tr":["udp%3A%2F%2Ftracker.openbittorrent.com%3A80","udp%3A%2F%2Fopen.demonii.com%3A1337","udp%3A%2F%2Ftracker.coppersurfer.tk%3A6969","udp%3A%2F%2Fexodus.desync.com%3A6969"],"infoHash":"dc63f561ab5f1b081cc9f4bc14d9be2f06cec59e","infoHashBuffer":{"type":"Buffer","data":[220,99,245,97,171,95,27,8,28,201,244,188,20,217,190,47,6,206,197,158]},"announce":[],"urlList":[]}}